<svg xmlns="http://www.w3.org/2000/svg" xmlns:xlink="http://www.w3.org/1999/xlink" version="1.1" id="_x32_" width="800px" height="800px" viewBox="0 0 512 512" xml:space="preserve">
<style type="text/css">
<![CDATA[
	.st0{fill:#000000;}
]]>
</style>
<g>
	<path class="st0" d="M466.141,168.261H277.406c0,0-0.078,3.75,0.188,10.094c-10.109-2.453-12.813-3.797-24.297-3.813   c-9.484,0-10.266,1.016-18.859,2.688c0.219-5.641,0.156-8.969,0.156-8.969H45.859C20.531,168.261,0,188.792,0,214.12   c0,1.828,0,10.563,0,45.813c0,53.938,97.063,113.25,167.172,67.422c44.234-28.922,59.469-84.625,64.703-121.844   c8.781-2.484,10.609-4,21.422-4c12.891,0,16.641,2.078,26.422,5.484l0.438-1.25c5.266,37.219,20.547,92.766,64.672,121.609   C414.938,373.183,512,313.87,512,259.933c0-35.25,0-43.984,0-45.813C512,188.792,491.469,168.261,466.141,168.261z M32.359,265.323   c-7.188-89.875,70.109-70.109,70.109-70.109L32.359,265.323z M328.625,265.323c-7.188-89.875,70.125-70.109,70.125-70.109   L328.625,265.323z"/>
</g>
</svg>