<svg width="64" height="64" viewBox="0 0 64 64" fill="none" xmlns="http://www.w3.org/2000/svg">
  <path d="M41.5 18.5C41.5 18.5 32 21 26 23.5C23.5 24.5 22 26.5 22 29.5V44C22 48.5 18.5 52 14 52C9.5 52 6 48.5 6 44C6 39.5 9.5 36 14 36C15.5 36 16.5 36.5 17.5 37.5V28C17.5 22 22 18.5 28 16L43.5 10C45.5 9 47.5 10.5 47.5 13V38C47.5 42.5 44 46 39.5 46C35 46 31.5 42.5 31.5 38C31.5 33.5 35 30 39.5 30C41 30 42 30.5 43 31.5V13.5C43 12.5 42.5 12 41.5 12.5L41.5 18.5Z" fill="black"/>
  
  <path d="M54 4C55 10 58 13 64 14C58 15 55 18 54 24C53 18 50 15 44 14C50 13 53 10 54 4Z" fill="black"/>
</svg>