<svg xmlns="http://www.w3.org/2000/svg" xmlns:xlink="http://www.w3.org/1999/xlink" fill="#000000" version="1.1" id="Layer_1" viewBox="0 0 512 512" xml:space="preserve">
<g>
	<g>
		<path d="M0,60.193V512h201.735V353.409h108.531V512H512V60.193H0z M150.426,427.677H41.895v-74.268h108.531V427.677z     M150.426,302.017H41.895v-74.268h108.531V302.017z M150.426,176.355H41.895v-74.267h108.531V176.355z M310.266,302.017h-0.001    h-108.53v-74.268h108.531V302.017z M310.266,176.355h-0.001h-108.53v-74.267h108.531V176.355z M470.105,427.677H361.574v-74.268    h108.531V427.677z M470.105,302.017H361.574v-74.268h108.531V302.017z M470.105,176.355H361.574v-74.267h108.531V176.355z"/>
	</g>
</g>
<g>
	<g>
		<rect x="22.841" width="466.315" height="29.777"/>
	</g>
</g>
</svg>